# xmcd
#
# Track frame offsets:
#	150
#	20681
#	43772
#	59592
#	72955
#	82822
#	96544
#	111418
#	127206
#	152663
#	167878
#	183618
#	200297
#	217326
#	237494
#	256611
#	274689
#	289464
#	304078
#	318853
#
# Disc length: 4557 seconds
#
# Revision: 1
# Processed by: cddbd v1.5.2PL0 Copyright (c) Steve Scherf et al.
# Submitted via: audiograbber 1.83.01
#
DISCID=3811cb14
DTITLE=Kurt Ostbahn - Ois wosd brauchst! CD1 Die Hits
DYEAR=2011
DGENRE=
TTITLE0=Da Joker
TTITLE1=Zuckagoschal
TTITLE2=Neiche Schoin
TTITLE3=Feia
TTITLE4=I hea di klopfn
TTITLE5=Arbeit
TTITLE6=57er Cevy
TTITLE7=I wüs garned wissn
TTITLE8=Na so wirst ned oid (live)
TTITLE9=Wirklich woa (live)
TTITLE10=Bertl Braun
TTITLE11=Schee schee schee
TTITLE12=Liagn and Lochn
TTITLE13=57 Engeln
TTITLE14=Frog ned wos Muagn is
TTITLE15=Reserviert fia zwa
TTITLE16=Carmelita
TTITLE17=Radl noch Rio
TTITLE18=Ois hod sei End (live)
TTITLE19=Wann de Musik vuabei is
EXTD=
EXTT0=
EXTT1=
EXTT2=
EXTT3=
EXTT4=
EXTT5=
EXTT6=
EXTT7=
EXTT8=
EXTT9=
EXTT10=
EXTT11=
EXTT12=
EXTT13=
EXTT14=
EXTT15=
EXTT16=
EXTT17=
EXTT18=
EXTT19=
PLAYORDER=
